{
	"asset":{
		"generator":"Khronos glTF Blender I/O v3.6.27",
		"version":"2.0"
	},
	"extensionsUsed":[
		"KHR_materials_specular",
		"KHR_materials_ior"
	],
	"scene":0,
	"scenes":[
		{
			"name":"Scene",
			"nodes":[
				0
			]
		}
	],
	"nodes":[
		{
			"mesh":0,
			"name":"Cube",
			"rotation":[
				0,
				0.7071067094802856,
				0,
				0.7071068286895752
			],
			"translation":[
				0,
				1,
				0
			]
		}
	],
	"materials":[
		{
			"doubleSided":true,
			"extensions":{
				"KHR_materials_specular":{
					"specularColorFactor":[
						0,
						0,
						0
					]
				},
				"KHR_materials_ior":{
					"ior":1.4500000476837158
				}
			},
			"name":"Material.001",
			"pbrMetallicRoughness":{
				"baseColorFactor":[
					0.7011011838912964,
					0.6866847276687622,
					0.6795424818992615,
					1
				],
				"metallicFactor":0,
				"roughnessFactor":0
			}
		},
		{
			"doubleSided":true,
			"extensions":{
				"KHR_materials_specular":{
					"specularColorFactor":[
						0,
						0,
						0
					]
				},
				"KHR_materials_ior":{
					"ior":1.4500000476837158
				}
			},
			"name":"Material.006",
			"pbrMetallicRoughness":{
				"baseColorFactor":[
					0.03788655623793602,
					0.03788655623793602,
					0.03788655623793602,
					1
				],
				"metallicFactor":0,
				"roughnessFactor":0
			}
		}
	],
	"meshes":[
		{
			"name":"Cube",
			"primitives":[
				{
					"attributes":{
						"POSITION":0,
						"NORMAL":1,
						"TEXCOORD_0":2
					},
					"indices":3,
					"material":0
				},
				{
					"attributes":{
						"POSITION":4,
						"NORMAL":5,
						"TEXCOORD_0":6
					},
					"indices":7,
					"material":1
				}
			]
		}
	],
	"accessors":[
		{
			"bufferView":0,
			"componentType":5126,
			"count":32,
			"max":[
				0.15013261139392853,
				0.8498843908309937,
				0.14999999105930328
			],
			"min":[
				-0.15041080117225647,
				-0.7999999523162842,
				-0.14999999105930328
			],
			"type":"VEC3"
		},
		{
			"bufferView":1,
			"componentType":5126,
			"count":32,
			"type":"VEC3"
		},
		{
			"bufferView":2,
			"componentType":5126,
			"count":32,
			"type":"VEC2"
		},
		{
			"bufferView":3,
			"componentType":5123,
			"count":48,
			"type":"SCALAR"
		},
		{
			"bufferView":4,
			"componentType":5126,
			"count":112,
			"max":[
				0.20000000298023224,
				0.8999999761581421,
				0.19999997317790985
			],
			"min":[
				-0.20000000298023224,
				-1,
				-0.19999997317790985
			],
			"type":"VEC3"
		},
		{
			"bufferView":5,
			"componentType":5126,
			"count":112,
			"type":"VEC3"
		},
		{
			"bufferView":6,
			"componentType":5126,
			"count":112,
			"type":"VEC2"
		},
		{
			"bufferView":7,
			"componentType":5123,
			"count":210,
			"type":"SCALAR"
		}
	],
	"bufferViews":[
		{
			"buffer":0,
			"byteLength":384,
			"byteOffset":0,
			"target":34962
		},
		{
			"buffer":0,
			"byteLength":384,
			"byteOffset":384,
			"target":34962
		},
		{
			"buffer":0,
			"byteLength":256,
			"byteOffset":768,
			"target":34962
		},
		{
			"buffer":0,
			"byteLength":96,
			"byteOffset":1024,
			"target":34963
		},
		{
			"buffer":0,
			"byteLength":1344,
			"byteOffset":1120,
			"target":34962
		},
		{
			"buffer":0,
			"byteLength":1344,
			"byteOffset":2464,
			"target":34962
		},
		{
			"buffer":0,
			"byteLength":896,
			"byteOffset":3808,
			"target":34962
		},
		{
			"buffer":0,
			"byteLength":420,
			"byteOffset":4704,
			"target":34963
		}
	],
	"buffers":[
		{
			"byteLength":5124,
			"uri":"data:application/octet-stream;base64,"
		}
	]
}
