{
	"asset":{
		"generator":"Khronos glTF Blender I/O v3.6.27",
		"version":"2.0"
	},
	"extensionsUsed":[
		"KHR_materials_specular",
		"KHR_materials_ior"
	],
	"scene":0,
	"scenes":[
		{
			"name":"Scene",
			"nodes":[
				0,
				1,
				2,
				3
			]
		}
	],
	"nodes":[
		{
			"mesh":0,
			"name":"Cube"
		},
		{
			"mesh":1,
			"name":"Cube.003",
			"scale":[
				0.800000011920929,
				1,
				0.19999998807907104
			]
		},
		{
			"mesh":2,
			"name":"Cube.001",
			"rotation":[
				0,
				0.7071066498756409,
				0,
				0.70710688829422
			],
			"scale":[
				1,
				1,
				3.499886989593506
			],
			"translation":[
				0,
				1,
				0
			]
		},
		{
			"mesh":3,
			"name":"Cube.002",
			"scale":[
				0.800000011920929,
				1,
				0.19999998807907104
			],
			"translation":[
				0,
				0,
				0.11999999731779099
			]
		}
	],
	"materials":[
		{
			"doubleSided":true,
			"extensions":{
				"KHR_materials_specular":{
					"specularColorFactor":[
						0,
						0,
						0
					]
				},
				"KHR_materials_ior":{
					"ior":1.4500000476837158
				}
			},
			"name":"Material.002",
			"pbrMetallicRoughness":{
				"baseColorFactor":[
					0.03820433095097542,
					0.038204338401556015,
					0.0382043719291687,
					1
				],
				"metallicFactor":0
			}
		},
		{
			"alphaMode":"BLEND",
			"doubleSided":true,
			"extensions":{
				"KHR_materials_specular":{
					"specularColorFactor":[
						0,
						0,
						0
					]
				},
				"KHR_materials_ior":{
					"ior":1.4500000476837158
				}
			},
			"name":"Material.003",
			"pbrMetallicRoughness":{
				"baseColorFactor":[
					0.1384308785200119,
					0.36625218391418457,
					0.7991028428077698,
					1
				],
				"metallicFactor":0
			}
		},
		{
			"doubleSided":true,
			"extensions":{
				"KHR_materials_specular":{
					"specularColorFactor":[
						0,
						0,
						0
					]
				},
				"KHR_materials_ior":{
					"ior":1.4500000476837158
				}
			},
			"name":"Material",
			"pbrMetallicRoughness":{
				"baseColorFactor":[
					0.38957756757736206,
					0.5308055877685547,
					0.7991028428077698,
					1
				],
				"metallicFactor":0
			}
		},
		{
			"doubleSided":true,
			"extensions":{
				"KHR_materials_specular":{
					"specularColorFactor":[
						0,
						0,
						0
					]
				},
				"KHR_materials_ior":{
					"ior":1.4500000476837158
				}
			},
			"name":"Material.001",
			"pbrMetallicRoughness":{
				"baseColorFactor":[
					0.7011011838912964,
					0.6866847276687622,
					0.6795424818992615,
					1
				],
				"metallicFactor":0,
				"roughnessFactor":0
			}
		},
		{
			"doubleSided":true,
			"extensions":{
				"KHR_materials_specular":{
					"specularColorFactor":[
						0,
						0,
						0
					]
				},
				"KHR_materials_ior":{
					"ior":1.4500000476837158
				}
			},
			"name":"Material.006",
			"pbrMetallicRoughness":{
				"baseColorFactor":[
					0.03788655623793602,
					0.03788655623793602,
					0.03788655623793602,
					1
				],
				"metallicFactor":0,
				"roughnessFactor":0
			}
		},
		{
			"alphaMode":"BLEND",
			"doubleSided":true,
			"extensions":{
				"KHR_materials_specular":{
					"specularColorFactor":[
						0,
						0,
						0
					]
				},
				"KHR_materials_ior":{
					"ior":1.4500000476837158
				}
			},
			"name":"Material.004",
			"pbrMetallicRoughness":{
				"baseColorFactor":[
					0.1384308785200119,
					0.36625218391418457,
					0.7991028428077698,
					1
				],
				"metallicFactor":0
			}
		},
		{
			"doubleSided":true,
			"extensions":{
				"KHR_materials_specular":{
					"specularColorFactor":[
						0,
						0,
						0
					]
				},
				"KHR_materials_ior":{
					"ior":1.4500000476837158
				}
			},
			"name":"Material.005",
			"pbrMetallicRoughness":{
				"baseColorFactor":[
					0.38957756757736206,
					0.5308055877685547,
					0.7991028428077698,
					1
				],
				"metallicFactor":0
			}
		}
	],
	"meshes":[
		{
			"name":"Cube.002",
			"primitives":[
				{
					"attributes":{
						"POSITION":0,
						"NORMAL":1,
						"TEXCOORD_0":2
					},
					"indices":3,
					"material":0
				}
			]
		},
		{
			"name":"Cube.004",
			"primitives":[
				{
					"attributes":{
						"POSITION":4,
						"NORMAL":5,
						"TEXCOORD_0":6
					},
					"indices":7,
					"material":1
				},
				{
					"attributes":{
						"POSITION":8,
						"NORMAL":9,
						"TEXCOORD_0":10
					},
					"indices":11,
					"material":2
				}
			]
		},
		{
			"name":"Cube.001",
			"primitives":[
				{
					"attributes":{
						"POSITION":12,
						"NORMAL":13,
						"TEXCOORD_0":14
					},
					"indices":15,
					"material":3
				},
				{
					"attributes":{
						"POSITION":16,
						"NORMAL":17,
						"TEXCOORD_0":18
					},
					"indices":19,
					"material":4
				}
			]
		},
		{
			"name":"Cube.003",
			"primitives":[
				{
					"attributes":{
						"POSITION":20,
						"NORMAL":21,
						"TEXCOORD_0":22
					},
					"indices":7,
					"material":5
				},
				{
					"attributes":{
						"POSITION":23,
						"NORMAL":24,
						"TEXCOORD_0":25
					},
					"indices":11,
					"material":6
				}
			]
		}
	],
	"accessors":[
		{
			"bufferView":0,
			"componentType":5126,
			"count":72,
			"max":[
				0.5,
				1.7000000476837158,
				0.20000001788139343
			],
			"min":[
				-0.5,
				0.7000000476837158,
				-0.20000001788139343
			],
			"type":"VEC3"
		},
		{
			"bufferView":1,
			"componentType":5126,
			"count":72,
			"type":"VEC3"
		},
		{
			"bufferView":2,
			"componentType":5126,
			"count":72,
			"type":"VEC2"
		},
		{
			"bufferView":3,
			"componentType":5123,
			"count":144,
			"type":"SCALAR"
		},
		{
			"bufferView":4,
			"componentType":5126,
			"count":14,
			"max":[
				0.5,
				1.600000023841858,
				-0.2996715009212494
			],
			"min":[
				-0.5,
				0.8000000715255737,
				-0.2996715009212494
			],
			"type":"VEC3"
		},
		{
			"bufferView":5,
			"componentType":5126,
			"count":14,
			"type":"VEC3"
		},
		{
			"bufferView":6,
			"componentType":5126,
			"count":14,
			"type":"VEC2"
		},
		{
			"bufferView":7,
			"componentType":5123,
			"count":18,
			"type":"SCALAR"
		},
		{
			"bufferView":8,
			"componentType":5126,
			"count":14,
			"max":[
				0.5,
				1.600000023841858,
				-0.2996715009212494
			],
			"min":[
				-0.5,
				0.8000000715255737,
				-0.2996715009212494
			],
			"type":"VEC3"
		},
		{
			"bufferView":9,
			"componentType":5126,
			"count":14,
			"type":"VEC3"
		},
		{
			"bufferView":10,
			"componentType":5126,
			"count":14,
			"type":"VEC2"
		},
		{
			"bufferView":11,
			"componentType":5123,
			"count":24,
			"type":"SCALAR"
		},
		{
			"bufferView":12,
			"componentType":5126,
			"count":28,
			"max":[
				0.15013262629508972,
				0.8498843908309937,
				0.19999998807907104
			],
			"min":[
				-0.15041080117225647,
				-0.7999999523162842,
				-0.19999998807907104
			],
			"type":"VEC3"
		},
		{
			"bufferView":13,
			"componentType":5126,
			"count":28,
			"type":"VEC3"
		},
		{
			"bufferView":14,
			"componentType":5126,
			"count":28,
			"type":"VEC2"
		},
		{
			"bufferView":15,
			"componentType":5123,
			"count":84,
			"type":"SCALAR"
		},
		{
			"bufferView":16,
			"componentType":5126,
			"count":32,
			"max":[
				0.20000000298023224,
				0.8999999761581421,
				0.19999998807907104
			],
			"min":[
				-0.20000000298023224,
				-1,
				-0.19999998807907104
			],
			"type":"VEC3"
		},
		{
			"bufferView":17,
			"componentType":5126,
			"count":32,
			"type":"VEC3"
		},
		{
			"bufferView":18,
			"componentType":5126,
			"count":32,
			"type":"VEC2"
		},
		{
			"bufferView":19,
			"componentType":5123,
			"count":54,
			"type":"SCALAR"
		},
		{
			"bufferView":20,
			"componentType":5126,
			"count":14,
			"max":[
				0.5,
				1.600000023841858,
				-0.2996715009212494
			],
			"min":[
				-0.5,
				0.8000000715255737,
				-0.2996715009212494
			],
			"type":"VEC3"
		},
		{
			"bufferView":21,
			"componentType":5126,
			"count":14,
			"type":"VEC3"
		},
		{
			"bufferView":22,
			"componentType":5126,
			"count":14,
			"type":"VEC2"
		},
		{
			"bufferView":23,
			"componentType":5126,
			"count":14,
			"max":[
				0.5,
				1.600000023841858,
				-0.2996715009212494
			],
			"min":[
				-0.5,
				0.8000000715255737,
				-0.2996715009212494
			],
			"type":"VEC3"
		},
		{
			"bufferView":24,
			"componentType":5126,
			"count":14,
			"type":"VEC3"
		},
		{
			"bufferView":25,
			"componentType":5126,
			"count":14,
			"type":"VEC2"
		}
	],
	"bufferViews":[
		{
			"buffer":0,
			"byteLength":864,
			"byteOffset":0,
			"target":34962
		},
		{
			"buffer":0,
			"byteLength":864,
			"byteOffset":864,
			"target":34962
		},
		{
			"buffer":0,
			"byteLength":576,
			"byteOffset":1728,
			"target":34962
		},
		{
			"buffer":0,
			"byteLength":288,
			"byteOffset":2304,
			"target":34963
		},
		{
			"buffer":0,
			"byteLength":168,
			"byteOffset":2592,
			"target":34962
		},
		{
			"buffer":0,
			"byteLength":168,
			"byteOffset":2760,
			"target":34962
		},
		{
			"buffer":0,
			"byteLength":112,
			"byteOffset":2928,
			"target":34962
		},
		{
			"buffer":0,
			"byteLength":36,
			"byteOffset":3040,
			"target":34963
		},
		{
			"buffer":0,
			"byteLength":168,
			"byteOffset":3076,
			"target":34962
		},
		{
			"buffer":0,
			"byteLength":168,
			"byteOffset":3244,
			"target":34962
		},
		{
			"buffer":0,
			"byteLength":112,
			"byteOffset":3412,
			"target":34962
		},
		{
			"buffer":0,
			"byteLength":48,
			"byteOffset":3524,
			"target":34963
		},
		{
			"buffer":0,
			"byteLength":336,
			"byteOffset":3572,
			"target":34962
		},
		{
			"buffer":0,
			"byteLength":336,
			"byteOffset":3908,
			"target":34962
		},
		{
			"buffer":0,
			"byteLength":224,
			"byteOffset":4244,
			"target":34962
		},
		{
			"buffer":0,
			"byteLength":168,
			"byteOffset":4468,
			"target":34963
		},
		{
			"buffer":0,
			"byteLength":384,
			"byteOffset":4636,
			"target":34962
		},
		{
			"buffer":0,
			"byteLength":384,
			"byteOffset":5020,
			"target":34962
		},
		{
			"buffer":0,
			"byteLength":256,
			"byteOffset":5404,
			"target":34962
		},
		{
			"buffer":0,
			"byteLength":108,
			"byteOffset":5660,
			"target":34963
		},
		{
			"buffer":0,
			"byteLength":168,
			"byteOffset":5768,
			"target":34962
		},
		{
			"buffer":0,
			"byteLength":168,
			"byteOffset":5936,
			"target":34962
		},
		{
			"buffer":0,
			"byteLength":112,
			"byteOffset":6104,
			"target":34962
		},
		{
			"buffer":0,
			"byteLength":168,
			"byteOffset":6216,
			"target":34962
		},
		{
			"buffer":0,
			"byteLength":168,
			"byteOffset":6384,
			"target":34962
		},
		{
			"buffer":0,
			"byteLength":112,
			"byteOffset":6552,
			"target":34962
		}
	],
	"buffers":[
		{
			"byteLength":6664,
			"uri":"data:application/octet-stream;base64,"
		}
	]
}
